<svg xmlns="http://www.w3.org/2000/svg" width="512" height="512">
    <rect fill="#E1E1E1" x="130" y="180" width="300" height="300" />
    <path fill="#020101"
        d="M79.7 154.6a3025.4 3025.4 0 0017.8 0h14a11448.6 11448.6 0 0159.6 0 49670.5 49670.5 0 01173 0 549976.6 549976.6 0 0090.4 0c11.2 0 22 .4 30.5 8.4 6.4 7.3 7.5 14.6 7.4 24.2a26.4 26.4 0 01-9.2 17.7c-7 5.6-12 6.1-21.2 6.1v24l7.2.3a69.7 69.7 0 0148.6 24.7c13 16 15.8 35 14.2 55-2 14.4-9.8 27-20 37l-2 2.1c-6.3 6-13.5 9.9-21 13.9l2.4.3c7.4 1 12.5 2.2 17.6 8 3.3 4.5 4.7 9.7 6.4 15l1.2 3.6c8.1 25.3 15.4 56.8 3.4 82.1a70.2 70.2 0 01-43 33 95 95 0 01-25.6 2.3 4513.6 4513.6 0 00-17.6 0h-14a16053.6 16053.6 0 01-49.5 0 69232.3 69232.3 0 01-66.4 0h-3.4a34801 34801 0 00-143.4.2 7657.3 7657.3 0 01-58 0 79 79 0 01-38.5-8.2l-2-1C33 500 27.8 496.4 23 492l-2-1.8C9.4 478 5.7 461.2 5.9 444.7c1.1-20.3 6-40 12.6-59.3l.8-2.3c2-5.5 5-8.8 9.8-12.1 4.6-2 9-2.4 14-3l-2.7-1.4c-8-4.4-14.8-9-21.3-15.6l-2.1-2a57.5 57.5 0 01-11.2-16.8 61.4 61.4 0 01-6.1-31.5c.4-19 7.8-34.6 21.4-47.7 13.8-13 30.3-18 49-18v-24h-9a31.6 31.6 0 01-17.5-12 34.4 34.4 0 01-3.5-23c1.6-6 4.3-10 9-14l2.2-2.1c8.6-5.8 18.6-5.3 28.5-5.3zM56 177a16.5 16.5 0 00-1 10c2.3 4.5 4.4 7 9 9 3.8.4 7.7.4 11.6.4h24a6448.4 6448.4 0 0045 0 30653.3 30653.3 0 0085 .1h2.6a30696 30696 0 01109.5.1h9.1c2.7.5 3.6 1.2 5.2 3.4.4 3.5.4 3.5 0 7-2.8 2.7-4.8 3.4-8.7 3.4h-20.2a8200.6 8200.6 0 00-49.6.2 24468 24468 0 01-78.6.1h-2.5A259347 259347 0 0085 211a8214 8214 0 00-.8 93 792 792 0 01-.1 22.6L84 330c0 6 0 6 2.7 10.9 2 1.5 4.1 2.7 6.3 4 7.3 6 12 14.2 17 22l2 3c2.4.4 2.4.4 5.1.3A18 18 0 01131 377a45 45 0 014 9l1.1 2.8c2.6 6.4 4.2 11.4 1.9 18.2l-4.3.3h-2.4c-2.3-.3-2.3-.3-3.9-1.8-2-3.6-3.2-7.3-4.5-11.2-1.3-5-1.3-5-3.9-9.3l-9.7-.4c-4-.7-5.5-1.7-8.3-4.6a115 115 0 01-4.1-7c-7.2-12.6-7.2-12.6-18.5-21-4 0-5.5 2-8.2 4.6A110.4 110.4 0 0054.4 379a13.8 13.8 0 01-5.4 5c-3.2.5-3.2.5-6.8.7l-3.5.2-2.7.1c-3 6.3-5.2 12.6-7 19.3l-.8 2.8L26 415l-1 3.7c-4.4 16.5-6.8 38 2 53.3 7.3 12.1 19.6 18.8 32.7 23.3a71 71 0 0053.3-8c10-7 17.6-16.2 20-28.3a185.7 185.7 0 000-12 1067.4 1067.4 0 00-.3-13.6v-2.1c0-2.9 0-4.8 1.6-7.2 2.7-1.7 4.6-1.5 7.7-1.1 3 2 3.9 3.3 4.6 7 .6 5.2.8 10.6 1 16l.4 11h37l.7-12.2a219 219 0 019.2-48.5l1-3.3c5-16.2 5-16.2 11.2-20.5 3.2-1.6 5.8-1.5 9.3-1.4 3 0 3 0 5.6-1.1 2.5-3 4.3-6.1 6.1-9.5 5-9.1 12.8-19 22.9-22.5 6.9-1.2 11.8.2 17.6 4 9 7.3 16.2 17.6 21.4 28 3.2.6 6.4 1 9.7 1.3 4.4 1 7.2 2.2 9.9 5.8 5.2 10.5 8.3 21.6 11.4 32.9l.7 2.5c3.8 14.6 4.4 29.4 5.3 44.5h37l.2-11.2c.8-21.3 4.3-55.8 19.8-71.8 2-1.7 2-1.7 5-3l2.3.2c3.5.3 5.5.2 8.7-1.2 3.7-4 6.3-8.8 9-13.4a40.7 40.7 0 0115.6-15.9c2.6-1.5 2.6-1.5 3-4v-9.8a992582101.2 992582101.2 0 010-14l-.1-10.8a3982.8 3982.8 0 00-.2-43.5L427 211h-1.9a3818.6 3818.6 0 01-36.9-.5H382l-2.7-.1c-2.8-.5-3.6-1.2-5.3-3.4-.6-2.8-.3-5 0-8 3.6-2.4 5.3-2.3 9.7-2.3h2a765.5 765.5 0 0111.3 0 4215.2 4215.2 0 0146.6-.3c5.2-.6 8.4-2.2 11.8-6 1.9-4 2.7-7.2 1.6-11.4-2.4-3.9-4.7-6.6-9-8l-6.4-.1h-8.5a9340.7 9340.7 0 01-29.1-.1 30468.7 30468.7 0 00-120.3-.2h-3.5a30694.5 30694.5 0 01-145.3-.3 5327 5327 0 00-58.7 0C64.6 170 64.6 170 56 177zm1.1 119.7A17.9 17.9 0 0056 308c2 3.5 4.1 5.7 8 7h6v-24c-6 0-8.5 1.7-12.9 5.7zM442 291v24c6.2 0 7.4-.3 12-4 2.7-4 2.8-7.3 2-12-2-3.7-5-6.7-9-8h-5z" />
    <path fill="#D3D3D1"
        d="M85 211h111c-3 3-5.7 5.6-8.9 8.3A56.6 56.6 0 00168 255l1.7-.5c2.5-.5 4.7-.6 7.3-.6h2.6c2.2 0 4.2.5 6.4 1.1l-.1-3.1-.2-4.2v-2c-.1-3.5 0-5.3 2.1-8.2 3.2-2.2 5.4-2 9.2-1.5 2.2 1.5 2.2 1.5 4 4 .5 3 .5 6 .4 9v2.4c0 4.2-.3 7-2.4 10.6l1.3 1.9 1.6 2.5 1.7 2.4c2.6 4 3 7.4 2.4 12.2-2.3 8.6-7.7 13.5-15.2 17.9-4.8 2-9.2 2.2-14.4 2.2H173c-3-.1-3-.1-6-1.1a10331.6 10331.6 0 00.3 91.2c0 19.2.8 37.8 15 52.3C185 447 185 447 185 457h-37l-.5-14.3c-.2-9-.2-9-2.5-17.7-3.5-2.3-5-2.4-9-2-1.8 1-1.8 1-3 3-.4 3.3-.4 3.3-.2 7.1a12976.6 12976.6 0 01.3 11.1c.5 14.4-2 25.7-11.8 36.7A65.5 65.5 0 0175 497c-16.2-.6-32-6.5-43.3-18.4-11.3-13.5-10.3-29-9.4-45.6 1.3-12.5 4.7-39 13.8-48.1l9.7-.4c4-.7 5.5-1.7 8.3-4.6a115 115 0 004.1-7c10.2-17.8 10.2-17.8 18.5-21 4 0 5.5 2 8.2 4.6 6.3 6.8 11.4 14.3 15.8 22.3 1.6 2.4 2.9 3.7 5.4 5.1 3.3.6 3.3.6 6.8.7l3.5.2 2.7.1a178 178 0 017 17.7c.9 2.4.9 2.4 3 4.3 2.2.2 2.2.2 4.6.1h2.5l1.9-.1c2.2-6.7.6-12.2-1.7-18.6l-.7-2.2c-2.1-5.9-5-10-9.7-14-2.8-1.4-2.8-1.4-5.3-1-3.3 0-5.5 0-8.6-1.2-3.7-3.7-6.1-8.6-8.8-13A61.5 61.5 0 0085 339c-.4-2.2-.4-2.2-.4-5.1v-10.7l.1-10.2v-31.2l.2-27.5.1-43.3z" />
    <path fill="#FEB1C0"
        d="M249.4 7.9l3 1.9c2.5 1.5 2.5 1.5 5 .6L260 9c1-.5 2.2-1 3.3-1.7l5.4-2.7c10.7-5.5 23-6.3 34.7-4a47.7 47.7 0 0127 22.3L332 27l.9 2.3a66.6 66.6 0 01-5.7 50l-1 2A122.4 122.4 0 01264 135c-18.3 2.1-30.5-6.1-44.4-17a210 210 0 01-13.6-12l-1.6-1.4A89.2 89.2 0 01185 80l-1.5-2.8a66.7 66.7 0 01-3.8-50c5-12 14-20.3 25.8-25.3a51 51 0 0144 6z" />
    <path fill="#F7E769"
        d="M81 353c8.9 6.2 14.4 17.3 20.1 26.3 1.8 2.9 1.8 2.9 4.9 4.7 3.2.5 3.2.5 6.7.6l3.6.3 2.7.1a178 178 0 017 17.7c.9 2.4.9 2.4 3 4.3l6 1a1175 1175 0 012.3 8.3c.7 2.7.7 2.7.7 5.7l-2.5 1.7c-2.8 2.1-2.8 2.1-3 5.6l.2 4v2l.2 6.8c.6 15.1-1 27-11.6 38.8A65.5 65.5 0 0175 497c-16.2-.6-32-6.5-43.3-18.4-11.3-13.5-10.3-29-9.4-45.6 1.3-12.5 4.7-39 13.8-48.1l9.7-.4c4-.7 5.5-1.7 8.3-4.6 1.5-2.3 2.8-4.6 4.1-7 13-22.9 13-22.9 22.9-20z" />
    <path fill="#F6E669"
        d="M256.4 352c11 4.5 18 18.2 23.6 28v2c4.8 2.2 9 2.3 14.3 2.4 2.7.6 2.7.6 4.4 2.6 1.6 3.6 3 7.2 4.2 11l.8 2.3c6.7 21 14.2 48.3 4 69.3-8.2 14.8-21.3 21.4-37 26a67 67 0 01-47.9-6.8A47.1 47.1 0 01201 460l-.5-1.8c-4.5-22.1 3.3-51 12.5-71.2 2.6-2.6 4.1-2.3 7.8-2.5A23 23 0 00232 382c1.2-2.3 1.2-2.3 2-5 14.1-24.8 14.1-24.8 22.4-25z" />
    <path fill="#F7E769"
        d="M438 353c8.9 6.2 14.4 17.3 20.1 26.3 1.8 2.9 1.8 2.9 4.9 4.7 3.2.5 3.2.5 6.7.6l3.6.3 2.7.1c3 6.3 5.2 12.6 7 19.3l.8 2.8a1564.4 1564.4 0 013.2 11.6c2.5 9.5 3.2 19 3.3 28.8v2.6c0 11.5-3.6 21.5-11.2 30a65 65 0 01-45 17.1 64.6 64.6 0 01-44.3-17 44.5 44.5 0 01-11-34.8c.2-15.4 2.4-48.6 14.2-60.4l9.7-.4c4-.7 5.5-1.7 8.3-4.6 1.5-2.3 2.8-4.6 4.1-7 13-22.9 13-22.9 22.9-20z" />
    <path fill="#D2D2D0"
        d="M69.2 170.9h8.6a9131.4 9131.4 0 0018 0h14a34676.3 34676.3 0 01103.7-.1h17.3a53819.5 53819.5 0 00186.8-.2 2197.7 2197.7 0 0127.3 0c4.6.6 7.1 2.5 10.4 5.6 2.2 3.6 2.5 6.7 1.7 10.8-2.5 5-5 6.9-10 9-3.4.4-3.4.4-7 .4h-8.8a2336.5 2336.5 0 00-16.9.2 3934.9 3934.9 0 00-30.6.1H380c-3.2 0-3.2 0-6 2.3-.7 3-.7 3-1 6l-1-2h-14l-1 2-.9-3.4-1.1-3.6c-2.4-1.2-4-1.1-6.7-1.1h-30.5a23015.4 23015.4 0 00-47.4-.1H258a90712.1 90712.1 0 00-185.7-.3c-6 0-9.7-.4-14.3-4.5a14.6 14.6 0 01-3.5-11c1-3.8 3.6-6.4 6.5-9 2.8-1.4 5.1-1.1 8.2-1.1z" />
    <path fill="#010001"
        d="M415.8 36.6c7 4.3 12.7 10 16.2 17.4v2h2a39.9 39.9 0 0128 8 33.4 33.4 0 0110.4 25.9c-.4 12.3-6 21-14.8 29.3-15.9 13.5-39 17.3-59.3 16.7A23.5 23.5 0 01382 128a91.5 91.5 0 01-17-60 45.2 45.2 0 0118-30 35 35 0 0132.8-1.4z" />
    <path fill="#010101"
        d="M131.2 41.5c9 7.1 13.7 17.4 15.8 28.5a92 92 0 01-16 59 26 26 0 01-17.4 9.3c-22 .7-45.9-4.5-62.2-19.8a38 38 0 01-11.7-27.4V89c.2-9 3.1-15.5 9.3-22 7-5.6 13.3-8.1 22.3-8.7l3.7-.2c3-.1 3-.1 5 .9l.6-2.4c3.9-9.7 11.2-16 20.6-20 11-1.8 20.6-1.4 30 4.9z" />
    <path fill="#020101"
        d="M249.4 7.9l3 1.9c2.5 1.5 2.5 1.5 5 .6L260 9c1-.5 2.2-1 3.3-1.7l5.4-2.7c10.7-5.5 23-6.3 34.7-4a47.7 47.7 0 0127 22.3L332 27l.9 2.3a66.6 66.6 0 01-5.7 50l-1 2A122.4 122.4 0 01264 135c-18.3 2.1-30.5-6.1-44.4-17a210 210 0 01-13.6-12l-1.6-1.4A89.2 89.2 0 01185 80l-1.5-2.8a66.7 66.7 0 01-3.8-50c5-12 14-20.3 25.8-25.3a51 51 0 0144 6zm-52 18.7a38.3 38.3 0 00-4.8 23.2 46.3 46.3 0 005.6 22c4 8 9.7 14 15.8 20.2l2.2 2.4c9.3 9.9 25.6 24.3 39.3 26 14.9-.3 31.4-17.6 41.5-27.4l2.5-2.3c10.2-9.7 19.2-23.7 19.8-38.2v-7.3a31 31 0 00-9-23.3 33.5 33.5 0 00-23.2-7.2 46.8 46.8 0 00-26 14c-3 1.8-4.7 1.8-8.1 1.3-2.6-1.8-2.6-1.8-5.3-4.2a40.3 40.3 0 00-29.2-11.2c-8.6 1-15.5 5.5-21.1 12z" />
    <path fill="#FD9CAF"
        d="M238 19c5.4 3.2 10.3 6.9 15 11l-.8 1.8L251 34l-1.1 2.3c-8 21.2-.4 51.5 8 71.6l3.2 6.2c.8 1.8.8 1.8.8 4.8a15.3 15.3 0 01-10 1c-14-5.6-26.3-16.6-37-27l-2.5-2.3C202.3 81 193.3 67 192.7 52.5a375.5 375.5 0 010-7.3c0-9.3 2.4-16.4 9-23.2a31.1 31.1 0 0136.3-3z" />
    <path fill="#C3C1C7"
        d="M69.2 170.9h8.4a8463 8463 0 0017.3 0h13.2a30081.8 30081.8 0 01111.9.1l-1.5 3.3c-1.3 3.3-1.9 5.2-1.8 8.7v2.4c.3 3.4.3 3.4 2.3 9.6h132v1a80892.5 80892.5 0 01-122.3.2h-2.6a29864 29864 0 00-128.7.3 1511.4 1511.4 0 00-21.8 0h-3.3c-6.1 0-9.7-.4-14.3-4.5a14.6 14.6 0 01-3.5-11c1-3.8 3.6-6.4 6.5-9 2.8-1.4 5-1.1 8.2-1.1z" />
    <path fill="#F7D26C"
        d="M250 355c1 2 1 2 0 5.5l-1.7 4.6A202 202 0 00241 392l-.5 2.2c-6.1 31.4-6 72.4 10.5 100.8l3 2a56.8 56.8 0 01-36.8-12 47.2 47.2 0 01-16.2-25l-.5-1.8c-4.5-22.1 3.3-51 12.5-71.2 2.6-2.6 4.1-2.3 7.8-2.5A23 23 0 00232 382c1.2-2.3 1.2-2.3 2-5 4.4-7.8 9.6-15.6 16-22z" />
    <path fill="#F8D26D"
        d="M428 356c1.4 4.1-.2 6.8-1.6 10.8A191 191 0 00418 458l.6 3.8c1.7 9.9 5 19 8.7 28.2.7 2 .7 2 1.1 4.2l.6 1.8 3 1c-16.5-1.4-31.7-5.9-43.4-18.4a42.5 42.5 0 01-9.9-30.1v-3c.3-15.8 2.4-48.6 14.3-60.5l9.7-.4c4-.7 5.5-1.7 8.3-4.6 1.5-2.4 3-4.7 4.3-7.2A78.1 78.1 0 01428 356zm-357 0c1.5 3 .2 5-.8 8l-.9 2.6A199.4 199.4 0 0061 458l.5 3.7c1.8 10.7 5.7 20.4 9.8 30.4.7 1.9.7 1.9.7 3.9l3 1c-16.5-1.4-31.6-5.9-43.4-18.3-11.3-13.5-10.3-29-9.4-45.6 1.3-12.5 4.7-39 13.8-48.1l9.7-.4c4-.7 5.5-1.7 8.3-4.6 1.5-2.4 3-4.7 4.3-7.2A78.1 78.1 0 0171 356z" />
    <path fill="#FDB0BF"
        d="M405 49a27 27 0 0114.9 16.3l.8 2.1c.9 3.7.9 3.7 3.3 4.6h4.6l2.7-.1 5.8-.2c5.9-.1 9.3.3 13.9 4.3 3.7 3.6 6.1 6.9 6.3 12.1 0 6.8-3.2 12.4-7.6 17.4-13.7 12.4-31.6 14.7-49.3 15-4.4-.7-5.7-2-8.4-5.5a75.2 75.2 0 01-3.5-7.3l-.9-2C382 91.8 377 78 382 63.3c4.3-10 11.8-16.6 23-14.4z" />
    <path fill="#FCB0BF"
        d="M119 52.4c6.2 3.4 10 10 12 16.6a65.1 65.1 0 01-5 35.1l-3 7-1 2.3c-3.3 6.8-3.3 6.8-7 8.6a88.5 88.5 0 01-31-3l-2.9-.6A39.7 39.7 0 0157 100c-2.1-4.5-2.8-9-2-14a23 23 0 0113-12h7.2a657.2 657.2 0 0110.7.3c2.6-.4 3.4-1.2 5.1-3.3 1-2 1-2 1.9-4.3 3-6.9 5.9-12 13-15 4.8-1.6 8.6-1.1 13.2.7z" />
    <path fill="#5B576D"
        d="M70 251v25l-12 2a30.8 30.8 0 00-16 16.2 27.5 27.5 0 00.7 19.7c4.6 8.8 10 12.5 19.3 16.1 2.8.6 5.1.9 8 1 .4 3 .7 5 0 8a28 28 0 01-5.7 4.4 35.1 35.1 0 00-6.4 6c-3.4 3.6-3.4 3.6-7.3 4a54.2 54.2 0 01-30.3-26.8A55 55 0 0118 284a58.4 58.4 0 0132-31c6.6-2.6 13-2.1 20-2zm372 0c15.3-.8 28 4 39.4 14.2a54.2 54.2 0 0115.9 37.9 43.5 43.5 0 01-3.3 17.8 54.2 54.2 0 01-11.6 19A47.7 47.7 0 01462 353c-3.5-.1-4.8-.8-7.5-3.2l-2.5-2.7a30.8 30.8 0 00-7.8-6.7c-2.2-1.4-2.2-1.4-2.7-3.4l.5-6 1.8-.3c8.1-1.3 15-3.7 21-9.4A31.9 31.9 0 00471 297a31.3 31.3 0 00-17.1-19c-3.8-1.4-3.8-1.4-11.9-2v-25z" />
    <path fill="#FEA1AC"
        d="M197 236c2.2 1.5 2.2 1.5 4 4 .5 3 .5 6 .4 9v2.4c0 4.2-.3 7-2.4 10.6l1.3 1.9 1.6 2.5 1.7 2.4c2.6 4 3 7.4 2.4 12.2-2.3 8.6-7.7 13.5-15.2 17.9a39 39 0 01-27.9 0c-6.8-3.2-12-8-15.3-14.8a22.3 22.3 0 012-17.2c4.9-6.9 12-10.2 19.8-12.6 5.6-.6 11.2-.9 16.6.7l-.1-3.1-.2-4.2v-2c-.1-3.5 0-5.3 2.1-8.2 3.2-2.2 5.4-2 9.2-1.5zm125 0c2.2 1.5 2.2 1.5 4 4 .3 2.7.4 5 .3 7.8l-.1 2-.2 5.2 3.7-.2c11.2-.5 20.2 0 29 7.7a22 22 0 016.6 16.4c-1 7.5-4.4 12.5-10.3 17.1-9 5.6-19.6 6.7-29.9 4.4a30 30 0 01-17.6-14.8c-2-5.3-2.8-9.7-.4-15 1.8-3.3 3.8-6.4 5.9-9.6l-2-3c-.4-3-.4-6-.4-9v-2.4c0-3.8 0-6 2.2-9.1 3.2-2.2 5.4-2 9.2-1.5z" />
    <path fill="#FB9BAD"
        d="M405 49c6.7 2.9 11 7.4 14 14 .8 2.3 1.4 4.6 2 7l-2.1 2A65.1 65.1 0 00405 96l-.9 2.2c-2.5 7-3.7 14.5-5.1 21.8-3.8-1-4.9-1.8-7-5.2a157 157 0 01-2-4l-1-2.1c-6.7-14.2-12.3-29.8-7-45.3 4.3-10 11.8-16.6 23-14.4z" />
    <path fill="#FC9BAE"
        d="M74.4 73.9h3.4c2.8 0 5.4.4 8.2 1.1l.6 3.8c3.7 16.4 18.3 30.4 31.4 40.2-1 1.5-1 1.5-3 3a87.7 87.7 0 01-33.9-3.6A39.7 39.7 0 0157 100c-2.1-4.5-2.8-9-2-14 4.2-8.3 10.1-12.1 19.4-12.1z" />
    <path fill="#5B576E"
        d="M322 472h46l6 11c2.3 3 2.3 3 4.6 5.4a658369608.4 658369608.4 0 018.4 8.6h-83c4-5 4-5 6.3-7.2 5-5.3 9-11 11.7-17.8zm-178 0h46l5 10c3.6 5.6 7.8 10 13 14v1h-83l5-5 4-4.1 1.8-2c3.3-4.3 5.6-9.2 8.2-13.9z" />
    <path fill="#413D4E"
        d="M469 314l.3 1.9c.5 2.2.5 2.2 2.4 3.2l2.3.9 2.7 1c3.6 1 6.5 1.2 10.2 1.1h3.5l2.6-.1a48.6 48.6 0 01-23.6 27.8c-6.4 3.2-6.4 3.2-9.9 3.1-3.4-1.2-5-3.1-7.5-5.8a30.8 30.8 0 00-7.8-6.7c-2.2-1.4-2.2-1.4-2.7-3.4l.5-6 1.8-.3c7.9-1.3 15.8-3.5 21.2-9.8 1.6-2.2 3-4.4 4-6.9zm-427 0l1.2 1.6L45 318l2 2.9A32 32 0 0070 331c.4 3 .7 5 0 8a28 28 0 01-5.7 4.4 35.1 35.1 0 00-6.4 6c-3.4 3.6-3.4 3.6-7.3 4A57.4 57.4 0 0120 326.5c-1-2.5-1-2.5-1-4.5l2.6.1c6.7.2 11.5.1 17.4-3.1l3-1v-4z" />
    <path fill="#040404"
        d="M243 248l4.5 3c3 2.2 4.4 3 8.2 3.6 4.5-.8 7.8-2.3 11.2-5.3 3.2-2 5.5-1.8 9.1-1.3 2.5 1.6 2.5 1.6 4 4 .3 3.3.3 3.3-1 7a29 29 0 01-19.9 11.3 31 31 0 01-22.6-7.6 14 14 0 01-4.8-7.4c.3-3.3.3-3.3 1.8-5.7 3.6-2.3 5.3-2.3 9.5-1.6z" />
    <path fill="#060405"
        d="M322 236c2.5 1.7 3.8 3 4.4 6 .2 2.3.2 4.6.2 7v2.4c0 4.3-.2 6.1-3 9.7-2.6 1.9-2.6 1.9-6.2 2-3.9-1.2-4.6-1.6-6.4-5.1a55.5 55.5 0 01-.5-11.4c0-3.9 0-6 2.3-9.1 3.2-2.2 5.4-2 9.2-1.5zm-125 0c2.5 1.7 3.8 3 4.4 6 .2 2.3.2 4.6.2 7v2.4c0 4.3-.2 6.1-3 9.7-2.6 1.9-2.6 1.9-6.2 2-3.9-1.2-4.6-1.6-6.4-5.1a55.5 55.5 0 01-.5-11.4c0-3.9 0-6 2.3-9.1 3.2-2.2 5.4-2 9.2-1.5z" />
</svg>